<svg width="76" height="76" viewBox="0 0 76 76" fill="none" xmlns="http://www.w3.org/2000/svg">
<path fill-rule="evenodd" clip-rule="evenodd" d="M46.3137 7.42148C34.0173 7.42148 24.049 17.3897 24.049 29.6862C24.049 41.9827 34.0172 51.9509 46.3137 51.9509C46.856 51.9509 47.3939 51.9313 47.9264 51.8933C47.8841 51.6763 47.862 51.4529 47.862 51.2252C47.862 49.2716 49.4603 47.6733 51.4139 47.6733H52.18C52.18 43.7499 55.3604 40.5693 59.2839 40.5693C61.2781 40.5693 63.0803 41.391 64.3703 42.7145C67.0178 39.0515 68.5781 34.5512 68.5781 29.6863C68.5784 17.3898 58.6102 7.42148 46.3137 7.42148V7.42148Z" fill="#232634"/>
<path fill-rule="evenodd" clip-rule="evenodd" d="M24.0491 29.6862C24.0491 17.3897 34.0173 7.42148 46.3138 7.42148C58.6103 7.42148 68.5785 17.3897 68.5785 29.6862C68.5785 34.551 67.0182 39.0515 64.3708 42.7142C64.7548 43.1081 65.0935 43.5464 65.3785 44.0208C65.7678 43.9135 66.1777 43.8559 66.601 43.8559C67.8751 43.8559 69.028 44.3753 69.8591 45.2141C72.802 40.7607 74.5156 35.4238 74.5156 29.6863C74.5156 14.1108 61.8892 1.48438 46.3137 1.48438C38.3028 1.48438 31.072 4.82453 25.9379 10.1881C23.5916 12.6391 21.6834 15.5128 20.3388 18.6834C18.9049 22.0642 18.1117 25.7826 18.1117 29.6863C18.1117 35.8973 20.1195 41.6394 23.5214 46.2988C25.2486 48.6643 27.3351 50.7508 29.7005 52.4781C34.3602 55.8802 40.1024 57.8882 46.3137 57.8882C50.9573 57.8882 55.3387 56.7654 59.2018 54.7772C56.5982 54.7772 53.9946 54.7772 51.3908 54.7772C49.6817 54.7772 48.2422 53.5158 47.9264 51.8933C47.394 51.9315 46.856 51.9509 46.3137 51.9509C34.0173 51.9509 24.0491 41.9827 24.0491 29.6862V29.6862Z" fill="#E78284"/>
<path fill-rule="evenodd" clip-rule="evenodd" d="M20.3388 18.6833C21.6835 15.5126 23.5918 12.639 25.9379 10.1879C25.165 8.7443 23.6425 7.76198 21.8906 7.76198C21.4671 7.76198 21.0573 7.81957 20.6681 7.92689C19.4262 5.85894 17.1616 4.47527 14.5738 4.47527C10.6503 4.47527 7.4699 7.65585 7.4699 11.5792H6.70385C4.7502 11.5792 3.15189 13.1775 3.15189 15.1312C3.15189 17.0618 4.74292 18.6831 6.68055 18.6831H20.3388V18.6833Z" fill="#CA9EE6"/>
<path fill-rule="evenodd" clip-rule="evenodd" d="M59.284 40.5692C55.3606 40.5692 52.1801 43.7498 52.1801 47.6731H51.4141C49.4604 47.6731 47.8621 49.2714 47.8621 51.2251C47.8621 51.4528 47.8842 51.6763 47.9265 51.8932C48.2424 53.5155 49.6817 54.777 51.3909 54.777H59.202H71.1762C73.0131 54.777 74.5159 53.2742 74.5159 51.4373C74.5159 49.6004 73.0132 48.0976 71.1762 48.0976C71.0925 46.9758 70.6054 45.9663 69.8595 45.2138C69.0281 44.3751 67.8754 43.8558 66.6013 43.8558C66.1778 43.8558 65.768 43.9134 65.3788 44.0207C65.094 43.5463 64.7552 43.108 64.3711 42.714C63.0805 41.3909 61.2784 40.5692 59.284 40.5692V40.5692Z" fill="#CA9EE6"/>
<path fill-rule="evenodd" clip-rule="evenodd" d="M23.8814 58.5506L17.4489 52.1182L2.93873 66.0237C1.00333 67.9591 1.00333 71.1259 2.93873 73.0613C4.87413 74.9967 8.04091 74.9967 9.97631 73.0613L23.8814 58.5506Z" fill="#E78284"/>
<path fill-rule="evenodd" clip-rule="evenodd" d="M17.4489 52.1182L23.8814 58.5506L29.7006 52.478C27.3351 50.7507 25.2487 48.6642 23.5216 46.2986L17.4489 52.1182Z" fill="#E5C890"/>
<path d="M38.8928 31.1706C39.7126 31.1706 40.3771 30.5061 40.3771 29.6862C40.3771 28.8664 39.7126 28.2019 38.8928 28.2019H38.8917C38.0719 28.2019 37.4078 28.8664 37.4078 29.6862C37.4078 30.5061 38.0729 31.1706 38.8928 31.1706Z" fill="#C6D0F5"/>
<path d="M46.3143 31.1706C47.1342 31.1706 47.7987 30.5061 47.7987 29.6862C47.7987 28.8664 47.1342 28.2019 46.3143 28.2019H46.3133C45.4935 28.2019 44.8294 28.8664 44.8294 29.6862C44.8294 30.5061 45.4945 31.1706 46.3143 31.1706Z" fill="#C6D0F5"/>
<path d="M53.7359 31.1706C54.5557 31.1706 55.2203 30.5061 55.2203 29.6862C55.2203 28.8664 54.5557 28.2019 53.7359 28.2019H53.7349C52.9151 28.2019 52.2509 28.8664 52.2509 29.6862C52.2509 30.5061 52.9161 31.1706 53.7359 31.1706Z" fill="#C6D0F5"/>
<path d="M72.4413 46.7817C72.2706 46.185 72.0103 45.6262 71.6764 45.1202C74.5081 40.4771 75.9999 35.1627 75.9999 29.6863C75.9999 13.3173 62.6827 0 46.3137 0C38.5088 0 31.3978 3.02756 26.0933 7.97003C24.9757 6.90162 23.4711 6.27791 21.8906 6.27791C21.7092 6.27791 21.5283 6.28592 21.3484 6.30196C19.7331 4.23802 17.2221 2.99119 14.5738 2.99119C10.3319 2.99119 6.79853 6.08198 6.10788 10.1302C3.61052 10.4258 1.6674 12.556 1.6674 15.1314C1.6674 17.9084 3.91614 20.1677 6.68038 20.1677H18.1923C17.1777 23.1569 16.6274 26.3585 16.6274 29.6863C16.6274 35.7491 18.4543 41.3932 21.5865 46.0972L1.91172 64.952C1.90415 64.9593 1.89658 64.9667 1.88916 64.9741C-0.62972 67.4931 -0.62972 71.5918 1.88916 74.1108C3.1486 75.3702 4.80302 76 6.45744 76C8.11185 76 9.76627 75.3702 11.0257 74.1108C11.0331 74.1034 11.0406 74.0958 11.0478 74.0882L29.902 54.4129C34.6063 57.5453 40.2505 59.3724 46.3137 59.3724C50.9708 59.3724 55.4244 58.326 59.5564 56.2615H71.1759C73.8358 56.2615 75.9999 54.0973 75.9999 51.4374C75.9999 49.2151 74.4895 47.339 72.4413 46.7817V46.7817ZM6.68053 17.1989C5.57234 17.1989 4.63618 16.2521 4.63618 15.1313C4.63618 13.9912 5.56373 13.0636 6.70383 13.0636H7.46989C8.28967 13.0636 8.9542 12.3991 8.9542 11.5793C8.9542 8.48063 11.4752 5.95967 14.5738 5.95967C16.5658 5.95967 18.3683 6.98073 19.3956 8.69126C19.7388 9.26257 20.4205 9.53524 21.0628 9.35786C21.331 9.28394 21.6095 9.24639 21.8906 9.24639C22.6917 9.24639 23.4548 9.56018 24.0247 10.0984C22.1584 12.2196 20.5893 14.6083 19.3831 17.1991H6.68053V17.1989ZM8.9165 72.0219C7.5542 73.3732 5.34643 73.3698 3.98843 72.0117C2.63028 70.6537 2.62687 68.4459 3.97819 67.0835L17.427 54.1952L21.8045 58.5727L8.9165 72.0219ZM23.8586 56.4287L19.5706 52.1406L23.3681 48.5013C24.6064 50.0089 25.9903 51.3926 27.4977 52.6311L23.8586 56.4287ZM19.5961 29.6861C19.5961 14.954 31.5817 2.96848 46.3138 2.96848C61.0459 2.96848 73.0315 14.954 73.0315 29.6861C73.0315 34.4219 71.7927 39.022 69.4362 43.0805C68.5861 42.6277 67.6195 42.3715 66.601 42.3715C66.5314 42.3715 66.4619 42.3727 66.3926 42.3751C68.7976 38.5809 70.0628 34.2204 70.0628 29.6863C70.0628 16.5911 59.409 5.93726 46.3138 5.93726C42.4653 5.93726 38.6409 6.88099 35.2542 8.66647C34.5291 9.04883 34.2511 9.94654 34.6333 10.6718C35.0155 11.3969 35.9134 11.6747 36.6386 11.2927C39.6001 9.73102 42.9457 8.90574 46.3137 8.90574C57.772 8.90574 67.0941 18.2278 67.0941 29.6861C67.0941 33.5523 66.0433 37.2737 64.0432 40.532C62.6508 39.606 60.9962 39.085 59.2842 39.085C55.0423 39.085 51.5088 42.1759 50.8183 46.2239C48.5709 46.4899 46.7725 48.2416 46.4349 50.4666C46.3962 50.4666 46.3558 50.4666 46.3138 50.4666C34.8555 50.4666 25.5334 41.1445 25.5334 29.6861C25.5334 26.3178 26.3585 22.9724 27.9196 20.0117C28.3019 19.2864 28.0241 18.3887 27.2988 18.0064C26.5738 17.624 25.6759 17.902 25.2935 18.6271C23.5084 22.0131 22.5646 25.8373 22.5646 29.6861C22.5646 42.7814 33.2183 53.4352 46.3137 53.4352C46.5327 53.4352 46.7141 53.4346 46.8851 53.4316C47.535 54.7654 48.7546 55.77 50.2235 56.1234C48.9409 56.31 47.6365 56.4038 46.3138 56.4038C31.5815 56.4038 19.5961 44.4183 19.5961 29.6861V29.6861ZM71.1761 53.2928H51.3908C50.2826 53.2928 49.3464 52.346 49.3464 51.2252C49.3464 50.0851 50.274 49.1575 51.4141 49.1575H52.1801C52.9999 49.1575 53.6644 48.493 53.6644 47.6732C53.6644 44.5746 56.1854 42.0536 59.284 42.0536C61.2761 42.0536 63.0785 43.0747 64.1058 44.785C64.4489 45.3565 65.1306 45.6292 65.773 45.4516C66.0414 45.3776 66.3198 45.3402 66.6008 45.3402C68.2163 45.3402 69.5757 46.5999 69.6958 48.2082C69.7535 48.983 70.399 49.582 71.1759 49.582C72.1991 49.582 73.0313 50.4143 73.0313 51.4374C73.0313 52.4606 72.1991 53.2928 71.1761 53.2928V53.2928Z" fill="#232634"/>
<path d="M30.5702 15.4271C31.39 15.4271 32.0546 14.7625 32.0546 13.9427C32.0546 13.1229 31.39 12.4583 30.5702 12.4583H30.5692C29.7493 12.4583 29.0854 13.1229 29.0854 13.9427C29.0854 14.7625 29.7504 15.4271 30.5702 15.4271V15.4271Z" fill="#232634"/>
</svg>
